<svg width="14" height="24" viewBox="0 0 14 24" fill="none" xmlns="http://www.w3.org/2000/svg">
<rect width="14" height="14" transform="translate(0 5)" fill="white" fill-opacity="0.01"/>
<g clip-path="url(#clip0_12913_15402)">
<path d="M6.99963 18.1242C5.37518 18.1242 3.81727 17.4789 2.6686 16.3302C1.51994 15.1816 0.874634 13.6237 0.874634 11.9992C0.874634 10.3748 1.51994 8.81684 2.6686 7.66818C3.81727 6.51952 5.37518 5.87421 6.99963 5.87421C8.62409 5.87421 10.182 6.51952 11.3307 7.66818C12.4793 8.81684 13.1246 10.3748 13.1246 11.9992C13.1246 13.6237 12.4793 15.1816 11.3307 16.3302C10.182 17.4789 8.62409 18.1242 6.99963 18.1242ZM6.99963 18.9992C8.85615 18.9992 10.6366 18.2617 11.9494 16.949C13.2621 15.6362 13.9996 13.8557 13.9996 11.9992C13.9996 10.1427 13.2621 8.36221 11.9494 7.04946C10.6366 5.7367 8.85615 4.99921 6.99963 4.99921C5.14312 4.99921 3.36264 5.7367 2.04989 7.04946C0.737132 8.36221 -0.000366211 10.1427 -0.000366211 11.9992C-0.000366211 13.8557 0.737132 15.6362 2.04989 16.949C3.36264 18.2617 5.14312 18.9992 6.99963 18.9992Z" fill="#6C757D"/>
<path d="M7.81338 10.7637L5.80963 11.0148L5.73788 11.3473L6.13163 11.42C6.38888 11.4812 6.43963 11.574 6.38363 11.8303L5.73788 14.8648C5.56813 15.6497 5.82976 16.019 6.44488 16.019C6.92176 16.019 7.47563 15.7985 7.72676 15.4957L7.80376 15.1317C7.62876 15.2857 7.37326 15.347 7.20351 15.347C6.96288 15.347 6.87538 15.1781 6.93751 14.8806L7.81338 10.7637ZM7.87463 8.93671C7.87463 9.16877 7.78245 9.39133 7.61835 9.55542C7.45426 9.71952 7.2317 9.81171 6.99963 9.81171C6.76757 9.81171 6.54501 9.71952 6.38092 9.55542C6.21682 9.39133 6.12463 9.16877 6.12463 8.93671C6.12463 8.70464 6.21682 8.48208 6.38092 8.31799C6.54501 8.15389 6.76757 8.06171 6.99963 8.06171C7.2317 8.06171 7.45426 8.15389 7.61835 8.31799C7.78245 8.48208 7.87463 8.70464 7.87463 8.93671Z" fill="#6C757D"/>
</g>
<defs>
<clipPath id="clip0_12913_15402">
<rect width="14" height="14" fill="white" transform="translate(0 5)"/>
</clipPath>
</defs>
</svg>
